# xmcd
#
# Track frame offsets: 
#        150
#        20436
#        31515
#        46044
#
# Disc length: 798 seconds
#
# Revision: 1
# Processed by: cddbd v1.5.2PL0 Copyright (c) Steve Scherf et al.
# Submitted via: ExactAudioCopyFreeDBPlugin 1.0
#
DISCID=1d031c04
DTITLE=The Animals - House Of The Rising Sun EP (Original version 4-tr
DTITLE=ack EP))
DYEAR=1998
DGENRE=Rock
TTITLE0=House Of The Rising Sun
TTITLE1=Don't Let Me Be Misunderstood
TTITLE2=We Gotta Get Out Of This Place
TTITLE3=It's My Life
EXTD=Zoo Magazine CD EP 8\nMinos-EMI 7243 4 93988 2 5
EXTT0=
EXTT1=
EXTT2=
EXTT3=
PLAYORDER=
